<svg width="602.1" height="74.501" viewBox="0 0 602.1 74.501" xmlns="http://www.w3.org/2000/svg"><g id="svgGroup" stroke-linecap="round" fill-rule="evenodd" font-size="9pt" stroke="#ffa500" stroke-width="1mm" fill="#ffa500" style="stroke:#ffa500;stroke-width:1mm;fill:#ffa500"><path d="M 390.6 48.3 L 343.8 48.3 L 343.8 46.4 L 389.5 46.4 L 388.7 47.9 A 27.423 27.423 0 0 0 387.782 40.693 A 23.548 23.548 0 0 0 385.8 35.7 Q 382.9 30.3 377.95 27.2 A 20.41 20.41 0 0 0 368.565 24.176 A 25.111 25.111 0 0 0 366.6 24.1 A 21.913 21.913 0 0 0 359.062 25.372 A 20.229 20.229 0 0 0 355.3 27.2 Q 350.3 30.3 347.45 35.7 Q 344.6 41.1 344.6 47.9 L 344.6 48.3 A 27.744 27.744 0 0 0 345.475 55.392 A 23.211 23.211 0 0 0 347.7 60.9 Q 350.8 66.4 356.2 69.5 A 23.473 23.473 0 0 0 365.914 72.486 A 28.934 28.934 0 0 0 368.5 72.6 Q 373.7 72.6 378.35 70.6 Q 383 68.6 386.1 64.6 L 387.5 66 Q 384.1 70.2 379.1 72.35 Q 374.1 74.5 368.5 74.5 A 28.652 28.652 0 0 1 361.011 73.555 A 24.131 24.131 0 0 1 355.2 71.15 Q 349.4 67.8 346.05 61.85 A 26.117 26.117 0 0 1 342.86 51.546 A 32.219 32.219 0 0 1 342.7 48.3 A 32.431 32.431 0 0 1 343.463 41.115 A 25.63 25.63 0 0 1 345.8 34.75 Q 348.9 28.9 354.35 25.55 Q 359.8 22.2 366.6 22.2 A 24.412 24.412 0 0 1 374.944 23.6 A 22.543 22.543 0 0 1 378.85 25.45 Q 384.3 28.7 387.45 34.5 A 25.921 25.921 0 0 1 390.351 43.716 A 32.613 32.613 0 0 1 390.6 47.8 L 390.6 48 L 390.6 48.3 Z M 0 64.6 L 1.4 63.3 A 20.285 20.285 0 0 0 5.142 66.693 Q 7.63 68.466 10.95 69.9 A 33.418 33.418 0 0 0 23.14 72.576 A 38.701 38.701 0 0 0 24.5 72.6 A 45.533 45.533 0 0 0 29.4 72.352 Q 31.925 72.078 34.054 71.502 A 21.262 21.262 0 0 0 36.95 70.5 A 19.886 19.886 0 0 0 40.478 68.554 Q 42.684 67.008 44.062 64.981 A 12.579 12.579 0 0 0 44.15 64.85 Q 46.5 61.3 46.5 57 A 16.993 16.993 0 0 0 46.19 53.658 Q 45.638 50.904 44.1 48.95 A 15.492 15.492 0 0 0 39.6 45.106 A 19.259 19.259 0 0 0 37.7 44.15 A 50.983 50.983 0 0 0 31.588 41.944 A 59.667 59.667 0 0 0 29 41.25 Q 24.3 40.1 19.55 38.9 Q 14.8 37.7 10.8 35.75 A 17.095 17.095 0 0 1 6.056 32.383 A 15.872 15.872 0 0 1 4.4 30.4 A 12.352 12.352 0 0 1 2.563 26.335 Q 2.123 24.639 2.027 22.642 A 23.73 23.73 0 0 1 2 21.5 Q 2 16.9 4.45 12.9 Q 6.9 8.9 12.05 6.4 A 22.229 22.229 0 0 1 16.738 4.781 Q 19.107 4.231 21.895 4.024 A 47.459 47.459 0 0 1 25.4 3.9 Q 31 3.9 36.45 5.65 Q 41.9 7.4 45.7 10.3 L 44.6 11.9 Q 40.4 8.8 35.3 7.3 Q 30.2 5.8 25.5 5.8 A 40.874 40.874 0 0 0 20.401 6.099 Q 17.844 6.421 15.69 7.09 A 20.392 20.392 0 0 0 13.4 7.95 Q 8.734 10.04 6.43 13.453 A 12.541 12.541 0 0 0 6.3 13.65 Q 4 17.2 4 21.6 A 17.585 17.585 0 0 0 4.303 24.967 Q 4.69 26.948 5.569 28.508 A 9.743 9.743 0 0 0 6.4 29.75 Q 8.8 32.8 12.8 34.55 A 50.078 50.078 0 0 0 18.654 36.673 A 59.466 59.466 0 0 0 21.55 37.45 Q 26.3 38.6 31 39.85 Q 35.7 41.1 39.7 43.05 A 17.832 17.832 0 0 1 44.075 46.015 A 15.875 15.875 0 0 1 46.1 48.3 A 11.809 11.809 0 0 1 47.937 52.261 Q 48.359 53.854 48.465 55.723 A 22.651 22.651 0 0 1 48.5 57 Q 48.5 61.6 46 65.6 A 15.349 15.349 0 0 1 42.077 69.779 Q 40.377 71.043 38.208 72.046 A 27.941 27.941 0 0 1 38.2 72.05 Q 32.9 74.5 24.6 74.5 Q 17 74.5 10.25 71.7 A 33.754 33.754 0 0 1 5.645 69.389 Q 2.188 67.288 0 64.6 Z M 131.1 64.6 L 132.5 63.3 A 20.285 20.285 0 0 0 136.242 66.693 Q 138.73 68.466 142.05 69.9 A 33.418 33.418 0 0 0 154.24 72.576 A 38.701 38.701 0 0 0 155.6 72.6 A 45.533 45.533 0 0 0 160.5 72.352 Q 163.025 72.078 165.154 71.502 A 21.262 21.262 0 0 0 168.05 70.5 A 19.886 19.886 0 0 0 171.578 68.554 Q 173.784 67.008 175.162 64.981 A 12.579 12.579 0 0 0 175.25 64.85 Q 177.6 61.3 177.6 57 A 16.993 16.993 0 0 0 177.29 53.658 Q 176.738 50.904 175.2 48.95 A 15.492 15.492 0 0 0 170.7 45.106 A 19.259 19.259 0 0 0 168.8 44.15 A 50.983 50.983 0 0 0 162.688 41.944 A 59.667 59.667 0 0 0 160.1 41.25 Q 155.4 40.1 150.65 38.9 Q 145.9 37.7 141.9 35.75 A 17.095 17.095 0 0 1 137.156 32.383 A 15.872 15.872 0 0 1 135.5 30.4 A 12.352 12.352 0 0 1 133.663 26.335 Q 133.223 24.639 133.127 22.642 A 23.73 23.73 0 0 1 133.1 21.5 Q 133.1 16.9 135.55 12.9 Q 138 8.9 143.15 6.4 A 22.229 22.229 0 0 1 147.838 4.781 Q 150.207 4.231 152.995 4.024 A 47.459 47.459 0 0 1 156.5 3.9 Q 162.1 3.9 167.55 5.65 Q 173 7.4 176.8 10.3 L 175.7 11.9 Q 171.5 8.8 166.4 7.3 Q 161.3 5.8 156.6 5.8 A 40.874 40.874 0 0 0 151.501 6.099 Q 148.944 6.421 146.79 7.09 A 20.392 20.392 0 0 0 144.5 7.95 Q 139.834 10.04 137.53 13.453 A 12.541 12.541 0 0 0 137.4 13.65 Q 135.1 17.2 135.1 21.6 A 17.585 17.585 0 0 0 135.403 24.967 Q 135.79 26.948 136.669 28.508 A 9.743 9.743 0 0 0 137.5 29.75 Q 139.9 32.8 143.9 34.55 A 50.078 50.078 0 0 0 149.754 36.673 A 59.466 59.466 0 0 0 152.65 37.45 Q 157.4 38.6 162.1 39.85 Q 166.8 41.1 170.8 43.05 A 17.832 17.832 0 0 1 175.175 46.015 A 15.875 15.875 0 0 1 177.2 48.3 A 11.809 11.809 0 0 1 179.037 52.261 Q 179.459 53.854 179.565 55.723 A 22.651 22.651 0 0 1 179.6 57 Q 179.6 61.6 177.1 65.6 A 15.349 15.349 0 0 1 173.177 69.779 Q 171.477 71.043 169.308 72.046 A 27.941 27.941 0 0 1 169.3 72.05 Q 164 74.5 155.7 74.5 Q 148.1 74.5 141.35 71.7 A 33.754 33.754 0 0 1 136.745 69.389 Q 133.288 67.288 131.1 64.6 Z M 283 64.6 L 284.4 63.3 A 20.285 20.285 0 0 0 288.142 66.693 Q 290.63 68.466 293.95 69.9 A 33.418 33.418 0 0 0 306.14 72.576 A 38.701 38.701 0 0 0 307.5 72.6 A 45.533 45.533 0 0 0 312.4 72.352 Q 314.925 72.078 317.054 71.502 A 21.262 21.262 0 0 0 319.95 70.5 A 19.886 19.886 0 0 0 323.478 68.554 Q 325.684 67.008 327.062 64.981 A 12.579 12.579 0 0 0 327.15 64.85 Q 329.5 61.3 329.5 57 A 16.993 16.993 0 0 0 329.19 53.658 Q 328.638 50.904 327.1 48.95 A 15.492 15.492 0 0 0 322.6 45.106 A 19.259 19.259 0 0 0 320.7 44.15 A 50.983 50.983 0 0 0 314.588 41.944 A 59.667 59.667 0 0 0 312 41.25 Q 307.3 40.1 302.55 38.9 Q 297.8 37.7 293.8 35.75 A 17.095 17.095 0 0 1 289.056 32.383 A 15.872 15.872 0 0 1 287.4 30.4 A 12.352 12.352 0 0 1 285.563 26.335 Q 285.123 24.639 285.027 22.642 A 23.73 23.73 0 0 1 285 21.5 Q 285 16.9 287.45 12.9 Q 289.9 8.9 295.05 6.4 A 22.229 22.229 0 0 1 299.738 4.781 Q 302.107 4.231 304.895 4.024 A 47.459 47.459 0 0 1 308.4 3.9 Q 314 3.9 319.45 5.65 Q 324.9 7.4 328.7 10.3 L 327.6 11.9 Q 323.4 8.8 318.3 7.3 Q 313.2 5.8 308.5 5.8 A 40.874 40.874 0 0 0 303.401 6.099 Q 300.844 6.421 298.69 7.09 A 20.392 20.392 0 0 0 296.4 7.95 Q 291.734 10.04 289.43 13.453 A 12.541 12.541 0 0 0 289.3 13.65 Q 287 17.2 287 21.6 A 17.585 17.585 0 0 0 287.303 24.967 Q 287.69 26.948 288.569 28.508 A 9.743 9.743 0 0 0 289.4 29.75 Q 291.8 32.8 295.8 34.55 A 50.078 50.078 0 0 0 301.654 36.673 A 59.466 59.466 0 0 0 304.55 37.45 Q 309.3 38.6 314 39.85 Q 318.7 41.1 322.7 43.05 A 17.832 17.832 0 0 1 327.075 46.015 A 15.875 15.875 0 0 1 329.1 48.3 A 11.809 11.809 0 0 1 330.937 52.261 Q 331.359 53.854 331.465 55.723 A 22.651 22.651 0 0 1 331.5 57 Q 331.5 61.6 329 65.6 A 15.349 15.349 0 0 1 325.077 69.779 Q 323.377 71.043 321.208 72.046 A 27.941 27.941 0 0 1 321.2 72.05 Q 315.9 74.5 307.6 74.5 Q 300 74.5 293.25 71.7 A 33.754 33.754 0 0 1 288.645 69.389 Q 285.188 67.288 283 64.6 Z M 602.1 43.7 L 602.1 74.2 L 600.1 74.2 L 600.1 43.7 A 30.141 30.141 0 0 0 599.621 38.149 Q 599.029 34.993 597.704 32.524 A 14.984 14.984 0 0 0 595.2 29.1 A 16.061 16.061 0 0 0 587.379 24.76 Q 584.697 24.1 581.5 24.1 A 28.251 28.251 0 0 0 575.914 24.626 A 20.8 20.8 0 0 0 569.8 26.85 Q 564.9 29.6 562.3 34.55 Q 559.7 39.5 559.7 46.1 L 559.7 74.2 L 557.7 74.2 L 557.7 0 L 559.7 0 L 559.7 37.2 L 559.5 36.9 Q 561.8 30.1 567.4 26.15 A 21.002 21.002 0 0 1 575.265 22.803 A 29.671 29.671 0 0 1 581.4 22.2 A 28.007 28.007 0 0 1 586.655 22.669 A 20.204 20.204 0 0 1 592.4 24.65 Q 597 27.1 599.55 31.9 Q 601.861 36.25 602.078 42.407 A 36.775 36.775 0 0 1 602.1 43.7 Z M 200.7 6.1 L 200.7 72.3 L 245.3 72.3 L 245.3 74.2 L 198.7 74.2 L 198.7 4.2 L 243.8 4.2 L 243.8 6.1 L 200.7 6.1 Z M 541.1 30.6 L 539.7 32.1 Q 536.7 28 532.2 26.05 A 24.029 24.029 0 0 0 522.905 24.103 A 27.516 27.516 0 0 0 522.5 24.1 A 25.191 25.191 0 0 0 515.06 25.168 A 22.18 22.18 0 0 0 510.5 27.15 Q 505.2 30.2 502.15 35.65 A 23.78 23.78 0 0 0 499.398 43.971 A 30.51 30.51 0 0 0 499.1 48.3 Q 499.1 55.5 502.15 60.95 Q 505.2 66.4 510.5 69.5 A 22.821 22.821 0 0 0 520.643 72.539 A 27.755 27.755 0 0 0 522.5 72.6 A 23.764 23.764 0 0 0 531.35 70.957 A 22.868 22.868 0 0 0 532.2 70.6 Q 536.7 68.6 539.7 64.6 L 541.1 66.1 Q 537.8 70.3 532.95 72.4 A 25.916 25.916 0 0 1 522.893 74.497 A 29.658 29.658 0 0 1 522.5 74.5 A 27.191 27.191 0 0 1 514.477 73.35 A 23.877 23.877 0 0 1 509.45 71.15 Q 503.7 67.8 500.4 61.9 A 25.86 25.86 0 0 1 497.361 52.489 A 32.721 32.721 0 0 1 497.1 48.3 A 30.538 30.538 0 0 1 497.977 40.838 A 24.983 24.983 0 0 1 500.4 34.7 Q 503.7 28.8 509.45 25.5 A 25.026 25.026 0 0 1 520.036 22.297 A 30.643 30.643 0 0 1 522.5 22.2 A 26.302 26.302 0 0 1 531.571 23.751 A 24.999 24.999 0 0 1 532.95 24.3 Q 537.8 26.4 541.1 30.6 Z M 69.6 74.2 L 67.6 74.2 L 67.6 4.2 L 91.3 4.2 A 45.035 45.035 0 0 1 98.12 4.689 Q 102.495 5.36 106.05 6.95 Q 112.2 9.7 115.5 14.8 Q 118.8 19.9 118.8 27.2 A 26.268 26.268 0 0 1 118.122 33.304 A 20.138 20.138 0 0 1 115.5 39.55 A 20.547 20.547 0 0 1 107.947 46.508 A 25.598 25.598 0 0 1 106.05 47.45 Q 100.332 50.007 92.497 50.186 A 52.2 52.2 0 0 1 91.3 50.2 L 68.7 50.2 L 69.6 49.3 L 69.6 74.2 Z M 420.9 46.1 L 441.6 46.1 L 441.6 48 L 420.8 48 A 36.585 36.585 0 0 0 416.481 48.236 Q 411.004 48.89 408.25 51.35 A 10.865 10.865 0 0 0 404.515 59.257 A 13.958 13.958 0 0 0 404.5 59.9 A 12.598 12.598 0 0 0 405.258 64.357 A 11.072 11.072 0 0 0 408.8 69.15 Q 412.387 72.028 418.34 72.505 A 30.804 30.804 0 0 0 420.8 72.6 A 26.775 26.775 0 0 0 426.204 72.084 Q 430.176 71.266 433.15 69.15 A 20.082 20.082 0 0 0 439.091 62.394 A 25.837 25.837 0 0 0 440.5 59.4 L 441.5 60.7 Q 439.4 66.9 434.15 70.7 A 19.332 19.332 0 0 1 426.965 73.861 Q 424.3 74.46 421.213 74.498 A 34.068 34.068 0 0 1 420.8 74.5 A 31.314 31.314 0 0 1 416.368 74.203 Q 413.998 73.864 411.994 73.137 A 17.864 17.864 0 0 1 410.9 72.7 A 15.658 15.658 0 0 1 407.386 70.604 A 12.745 12.745 0 0 1 404.65 67.6 Q 402.5 64.3 402.5 60 Q 402.5 56.3 404.25 53.15 Q 406 50 410 48.05 A 16.585 16.585 0 0 1 413.408 46.862 Q 415.097 46.457 417.106 46.267 A 40.455 40.455 0 0 1 420.9 46.1 Z M 442.5 74.2 L 440.5 74.2 L 440.5 61.9 L 440.5 60.2 L 440.5 40.4 A 24.859 24.859 0 0 0 440.09 35.728 Q 439.586 33.097 438.462 31.057 A 12.159 12.159 0 0 0 436.3 28.2 A 13.465 13.465 0 0 0 430.765 25.001 Q 428.67 24.353 426.143 24.171 A 28.432 28.432 0 0 0 424.1 24.1 Q 418.3 24.1 413.5 26.1 A 28.705 28.705 0 0 0 408.047 29.069 A 24.577 24.577 0 0 0 405.3 31.3 L 403.9 29.9 A 26.626 26.626 0 0 1 410.274 25.476 A 32.263 32.263 0 0 1 412.9 24.3 Q 418.2 22.2 424 22.2 A 28.17 28.17 0 0 1 429.33 22.672 Q 434.521 23.673 437.75 26.8 A 14.636 14.636 0 0 1 441.525 33.117 Q 442.5 36.267 442.5 40.3 L 442.5 74.2 Z M 69.6 5.3 L 69.6 49.1 L 68.7 48.3 L 91.5 48.3 Q 103.8 48.3 110.3 42.75 A 18.093 18.093 0 0 0 116.443 31.643 A 26.488 26.488 0 0 0 116.8 27.2 A 25.185 25.185 0 0 0 116.032 20.8 A 17.586 17.586 0 0 0 110.3 11.6 A 21.069 21.069 0 0 0 103.076 7.698 Q 98.13 6.1 91.5 6.1 L 68.7 6.1 L 69.6 5.3 Z M 466.9 74.2 L 464.9 74.2 L 464.9 22.5 L 466.9 22.5 L 466.9 36.8 L 466.7 36.5 Q 468.8 29.7 474.05 25.95 A 19.6 19.6 0 0 1 481.54 22.75 A 27.713 27.713 0 0 1 487.2 22.2 L 487.2 24.2 L 486.95 24.2 L 486.6 24.2 Q 477.3 24.2 472.1 30.15 A 20.011 20.011 0 0 0 467.895 38.22 Q 466.9 41.894 466.9 46.4 L 466.9 74.2 Z M 200.2 39.6 L 200.2 37.7 L 239.3 37.7 L 239.3 39.6 L 200.2 39.6 Z" vector-effect="non-scaling-stroke"/></g></svg>
